<?xml version="1.0" encoding="utf-8"?>
<!-- Generator: Adobe Illustrator 27.3.1, SVG Export Plug-In . SVG Version: 6.00 Build 0)  -->
<svg version="1.1" id="Слой_1" xmlns="http://www.w3.org/2000/svg" xmlns:xlink="http://www.w3.org/1999/xlink" x="0px" y="0px"
	 viewBox="0 0 50 50" style="enable-background:new 0 0 50 50;" xml:space="preserve">
<style type="text/css">
	.st0{fill:#F4F8F4;}
</style>
<path class="st0" d="M36.64,48H13.36C7.09,48,2,42.91,2,36.64V13.36C2,7.09,7.09,2,13.36,2h23.28C42.91,2,48,7.09,48,13.36v23.28
	C48,42.91,42.91,48,36.64,48z"/>
<g>
	<path d="M19.53,32.34V17.99h6.54c1.31,0,2.45,0.21,3.4,0.64c0.96,0.42,1.69,1.04,2.21,1.84c0.51,0.8,0.77,1.74,0.77,2.82
		c0,1.11-0.26,2.05-0.77,2.84c-0.51,0.79-1.25,1.39-2.21,1.83s-2.09,0.65-3.4,0.65h-4.31l1.83-1.78v5.54H19.53z M23.59,27.28
		l-1.83-1.91h4.06c0.85,0,1.48-0.18,1.91-0.54s0.64-0.88,0.64-1.55c0-0.64-0.21-1.15-0.64-1.53s-1.06-0.56-1.91-0.56h-4.06
		l1.83-1.87V27.28z"/>
</g>
</svg>
