<?xml version="1.0" encoding="utf-8"?>
<!-- Generator: Adobe Illustrator 27.3.1, SVG Export Plug-In . SVG Version: 6.00 Build 0)  -->
<svg version="1.1" id="Слой_1" xmlns="http://www.w3.org/2000/svg" xmlns:xlink="http://www.w3.org/1999/xlink" x="0px" y="0px"
	 viewBox="0 0 2000 2000" style="enable-background:new 0 0 2000 2000;" xml:space="preserve">
<g>
	<path d="M548.42,922.89c-7.97-4.76-16.71-8.68-26.22-11.78c-9.52-3.1-19.14-5.7-28.88-7.8c-9.74-2.1-18.59-4.2-26.55-6.31
		c-7.97-2.1-14.39-5.03-19.25-8.8c-4.87-3.76-7.3-8.74-7.3-14.94c0-4.86,1.49-9.29,4.48-13.28c2.99-3.98,7.69-7.14,14.11-9.46
		c6.42-2.32,14.94-3.49,25.56-3.49c10.18,0,20.8,1.49,31.86,4.48c11.06,2.99,21.79,7.47,32.2,13.44l16.93-40.5
		c-10.62-6.64-23.07-11.73-37.34-15.27c-14.27-3.54-28.71-5.31-43.32-5.31c-21.91,0-40.11,3.27-54.6,9.79
		c-14.5,6.53-25.28,15.27-32.36,26.22c-7.08,10.95-10.62,23.07-10.62,36.35c0,12.17,2.38,22.3,7.14,30.37
		c4.76,8.08,11.17,14.6,19.25,19.58c8.08,4.98,16.93,8.96,26.55,11.95c9.63,2.99,19.19,5.53,28.71,7.63
		c9.51,2.11,18.31,4.32,26.39,6.64c8.07,2.32,14.55,5.31,19.42,8.96c4.86,3.65,7.3,8.58,7.3,14.77c0,4.87-1.55,9.13-4.65,12.78
		c-3.1,3.65-7.91,6.59-14.44,8.8c-6.53,2.21-15.1,3.32-25.72,3.32c-13.94,0-27.77-2.27-41.49-6.8
		c-13.72-4.53-25.45-10.34-35.18-17.43l-18.26,40.5c10.4,7.97,24.17,14.44,41.33,19.42c17.15,4.98,35.02,7.47,53.61,7.47
		c21.91,0,40.16-3.32,54.77-9.96c14.61-6.64,25.5-15.38,32.69-26.22c7.19-10.84,10.79-22.79,10.79-35.85
		c0-11.95-2.49-21.96-7.47-30.04C562.86,934.07,556.38,927.65,548.42,922.89z"/>
	<polygon points="797.69,861.65 735.95,861.65 660.27,933.11 660.27,793.94 608.49,793.94 608.49,1040.23 660.27,1040.23 
		660.27,994.98 685.42,970.47 741.6,1040.23 804.33,1040.23 723.32,937.26 	"/>
	<rect x="827.56" y="861.65" width="51.78" height="178.58"/>
	<path d="M876.85,786.8c-6.09-5.2-13.89-7.8-23.4-7.8c-9.74,0-17.59,2.77-23.57,8.3c-5.97,5.53-8.96,12.4-8.96,20.58
		c0,8.19,2.99,15.05,8.96,20.58c5.98,5.53,13.83,8.3,23.57,8.3c9.73,0,17.59-2.82,23.57-8.46c5.97-5.64,8.96-12.78,8.96-21.41
		C885.98,798.7,882.94,792,876.85,786.8z"/>
	<path d="M1100.41,893.35c-6.42-11.62-15.22-20.25-26.39-25.89c-11.18-5.64-23.85-8.46-38.01-8.46c-15.27,0-28.88,3.21-40.83,9.63
		c-7.05,3.79-13.13,8.55-18.26,14.26v-21.23h-49.46v178.58h51.78v-88.29c0-11.29,1.83-20.36,5.48-27.22
		c3.65-6.86,8.74-12.06,15.27-15.6c6.53-3.54,13.89-5.31,22.07-5.31c11.5,0,20.41,3.43,26.72,10.29c6.31,6.86,9.46,17.48,9.46,31.87
		v94.27h51.78V937.99C1110.03,919.85,1106.82,904.97,1100.41,893.35z"/>
</g>
<g>
	<path d="M567.46,1226.71c-1.95-0.85-3.95-1.62-6-2.32c8.94-4.74,16.1-11.09,21.43-19.09c5.98-8.96,8.96-19.53,8.96-31.7
		c0-18.14-7.36-32.75-22.07-43.82c-14.72-11.06-36.68-16.6-65.89-16.6H390.38v232.35h120.16c30.54,0,53.66-5.59,69.37-16.76
		c15.71-11.17,23.57-26.72,23.57-46.64c0-13.49-3.21-24.89-9.62-34.19C587.43,1238.66,578.63,1231.58,567.46,1226.71z
		 M497.26,1153.69c13.05,0,23.07,2.21,30.04,6.64c6.97,4.43,10.46,11.29,10.46,20.58c0,9.3-3.49,16.21-10.46,20.75
		c-6.97,4.54-16.99,6.81-30.04,6.81h-53.44v-54.77H497.26z M538.42,1298.08c-7.3,4.65-17.82,6.97-31.53,6.97h-63.07v-57.42h63.07
		c13.72,0,24.23,2.32,31.53,6.97c7.3,4.65,10.95,11.95,10.95,21.91C549.37,1286.24,545.72,1293.43,538.42,1298.08z"/>
	<path d="M769.11,1255.59c0,10.62-1.82,19.47-5.48,26.55c-3.65,7.08-8.58,12.4-14.77,15.93c-6.2,3.54-13.28,5.31-21.24,5.31
		c-11.51,0-20.41-3.48-26.72-10.46c-6.31-6.97-9.46-17.98-9.46-33.03v-92.94h-51.78v100.91c0,18.15,3.21,33.19,9.63,45.14
		c6.42,11.95,15.38,20.8,26.89,26.55c11.5,5.76,24.78,8.63,39.83,8.63c13.72,0,26.33-3.15,37.84-9.46
		c6.79-3.72,12.65-8.51,17.59-14.36v21.16h49.12v-178.58h-51.45V1255.59z"/>
	<rect x="868.69" y="1166.97" width="51.78" height="178.58"/>
	<path d="M917.98,1092.12c-6.09-5.2-13.89-7.8-23.4-7.8c-9.74,0-17.59,2.77-23.57,8.3c-5.97,5.53-8.96,12.4-8.96,20.58
		c0,8.19,2.99,15.05,8.96,20.58c5.98,5.53,13.83,8.3,23.57,8.3c9.73,0,17.59-2.82,23.57-8.47c5.97-5.64,8.96-12.78,8.96-21.41
		C927.11,1104.01,924.06,1097.32,917.98,1092.12z"/>
	<rect x="968.6" y="1099.25" width="51.78" height="246.29"/>
	<path d="M1198.62,1185.61c-4.11-4.5-8.75-8.29-13.94-11.34c-11.29-6.64-24.45-9.96-39.5-9.96c-16.82,0-31.98,3.82-45.47,11.45
		c-13.5,7.63-24.12,18.31-31.87,32.03c-7.75,13.72-11.62,29.87-11.62,48.46c0,18.59,3.87,34.74,11.62,48.46
		c7.74,13.72,18.36,24.4,31.87,32.03c13.49,7.63,28.66,11.45,45.47,11.45c15.71,0,29.15-3.26,40.33-9.79
		c5.86-3.42,11-7.85,15.43-13.25v20.39h49.46v-246.29h-51.78V1185.61z M1193.48,1282.81c-4.1,7.53-9.57,13.23-16.43,17.09
		c-6.86,3.87-14.6,5.81-23.24,5.81c-8.41,0-16.05-1.94-22.9-5.81c-6.86-3.87-12.34-9.57-16.43-17.09
		c-4.1-7.52-6.14-16.37-6.14-26.55c0-10.4,2.04-19.25,6.14-26.55c4.09-7.3,9.57-12.89,16.43-16.76c6.86-3.87,14.49-5.81,22.9-5.81
		c8.63,0,16.37,1.94,23.24,5.81c6.86,3.88,12.33,9.46,16.43,16.76c4.09,7.3,6.14,16.16,6.14,26.55
		C1199.62,1266.44,1197.57,1275.29,1193.48,1282.81z"/>
	<path d="M1427.48,1175.6c-14.06-7.52-29.82-11.29-47.3-11.29c-18.15,0-34.47,3.93-48.96,11.78c-14.5,7.86-25.78,18.75-33.86,32.69
		c-8.08,13.94-12.12,29.77-12.12,47.47c0,17.71,4.2,33.47,12.61,47.3c8.41,13.83,20.25,24.73,35.52,32.7
		c15.27,7.97,33.08,11.95,53.44,11.95c16.15,0,30.42-2.49,42.82-7.47c12.39-4.98,22.68-12.11,30.87-21.41l-27.55-29.87
		c-5.97,5.76-12.56,10.07-19.75,12.95c-7.19,2.88-15.43,4.31-24.73,4.31c-10.84,0-20.14-1.93-27.88-5.81
		c-7.75-3.87-13.83-9.46-18.26-16.76c-2.44-4.02-4.18-8.45-5.27-13.28h135.06c0.22-2.21,0.44-4.59,0.66-7.14
		c0.22-2.54,0.33-4.81,0.33-6.81c0-19.25-4.1-35.73-12.28-49.46C1452.65,1193.74,1441.53,1183.12,1427.48,1175.6z M1357.11,1209.29
		c6.75-3.87,14.55-5.81,23.4-5.81c8.85,0,16.6,1.94,23.24,5.81c6.64,3.87,11.83,9.24,15.6,16.1c2.49,4.55,4.09,9.65,4.83,15.27
		h-87.76c0.86-5.56,2.49-10.6,4.92-15.1C1345.11,1218.58,1350.36,1213.16,1357.11,1209.29z"/>
	<path d="M1575.69,1174.1c-7.52,4.18-13.71,9.62-18.59,16.31v-23.44h-49.46v178.58h51.78v-84.31c0-17.04,4.32-29.65,12.95-37.84
		c8.63-8.18,20.25-12.28,34.85-12.28c1.77,0,3.59,0.11,5.48,0.33c1.88,0.22,3.82,0.55,5.81,1v-48.13
		C1601.69,1164.31,1587.42,1167.58,1575.69,1174.1z"/>
</g>
<path d="M1553.41,652h-257.83c-30.7,0-55.59,24.89-55.59,55.59v257.83c0,30.7,24.89,55.59,55.59,55.59h257.83
	c30.7,0,55.59-24.89,55.59-55.59V707.59C1609,676.89,1584.11,652,1553.41,652z M1540,921.2c0,17.01-13.79,30.8-30.8,30.8H1339.8
	c-17.01,0-30.8-13.79-30.8-30.8V751.8c0-17.01,13.79-30.8,30.8-30.8h169.39c17.01,0,30.8,13.79,30.8,30.8V921.2z"/>
</svg>
