<?xml version="1.0" encoding="utf-8"?>
<!-- Generator: Adobe Illustrator 27.3.1, SVG Export Plug-In . SVG Version: 6.00 Build 0)  -->
<svg version="1.1" id="Слой_1" xmlns="http://www.w3.org/2000/svg" xmlns:xlink="http://www.w3.org/1999/xlink" x="0px" y="0px"
	 viewBox="0 0 118 40" style="enable-background:new 0 0 118 40;" xml:space="preserve">
<style type="text/css">
	.st0{fill:#FFFFFF;}
</style>
<path class="st0" d="M31.43,6H12.57C10.32,6,8.5,7.82,8.5,10.07v18.87c0,2.25,1.82,4.07,4.07,4.07h18.87c2.25,0,4.07-1.82,4.07-4.07
	V10.07C35.5,7.82,33.68,6,31.43,6z M30.45,25.7c0,1.24-1.01,2.25-2.25,2.25H15.8c-1.24,0-2.25-1.01-2.25-2.25V13.3
	c0-1.24,1.01-2.25,2.25-2.25H28.2c1.24,0,2.25,1.01,2.25,2.25L30.45,25.7L30.45,25.7z"/>
<g>
	<path class="st0" d="M49.94,16.1c-0.33,0.11-0.77,0.17-1.31,0.17c-0.71,0-1.41-0.12-2.11-0.35s-1.29-0.52-1.79-0.88l-0.93,2.06
		c0.53,0.4,1.23,0.73,2.1,0.99c0.87,0.25,1.78,0.38,2.72,0.38c1.11,0,2.04-0.17,2.78-0.51s1.29-0.78,1.66-1.33
		c0.37-0.55,0.55-1.16,0.55-1.82c0-0.61-0.13-1.11-0.38-1.53c-0.25-0.41-0.58-0.73-0.99-0.98c-0.4-0.24-0.85-0.44-1.33-0.6
		c-0.48-0.16-0.97-0.29-1.47-0.4s-0.94-0.21-1.35-0.32c-0.4-0.11-0.73-0.26-0.98-0.45c-0.25-0.19-0.37-0.44-0.37-0.76
		c0-0.25,0.08-0.47,0.23-0.67c0.15-0.2,0.39-0.36,0.72-0.48c0.33-0.12,0.76-0.18,1.3-0.18c0.52,0,1.06,0.08,1.62,0.23
		s1.11,0.38,1.63,0.68l0.86-2.06c-0.54-0.34-1.17-0.6-1.9-0.78c-0.72-0.18-1.46-0.27-2.2-0.27c-1.11,0-2.04,0.17-2.77,0.5
		c-0.74,0.33-1.28,0.78-1.64,1.33c-0.36,0.56-0.54,1.17-0.54,1.85c0,0.62,0.12,1.13,0.36,1.54c0.24,0.41,0.57,0.74,0.98,0.99
		c0.41,0.25,0.86,0.45,1.35,0.61c0.49,0.15,0.97,0.28,1.46,0.39c0.48,0.11,0.93,0.22,1.34,0.34c0.41,0.12,0.74,0.27,0.99,0.45
		c0.25,0.19,0.37,0.44,0.37,0.75c0,0.25-0.08,0.46-0.24,0.65C50.51,15.84,50.27,15.99,49.94,16.1z"/>
	<polygon class="st0" points="57.93,15.97 59.21,14.72 62.06,18.26 65.24,18.26 61.13,13.03 64.91,9.2 61.77,9.2 57.93,12.82 
		57.93,5.76 55.3,5.76 55.3,18.26 57.93,18.26 	"/>
	<rect x="66.42" y="9.2" class="st0" width="2.63" height="9.07"/>
	<path class="st0" d="M67.74,7.93c0.49,0,0.89-0.14,1.2-0.43c0.3-0.29,0.45-0.65,0.45-1.09c0-0.42-0.15-0.76-0.46-1.02
		S68.22,5,67.74,5c-0.49,0-0.89,0.14-1.2,0.42c-0.3,0.28-0.45,0.63-0.45,1.04c0,0.42,0.15,0.76,0.45,1.04
		C66.85,7.79,67.24,7.93,67.74,7.93z"/>
	<path class="st0" d="M78.14,18.26h2.63v-5.19c0-0.92-0.16-1.68-0.49-2.27c-0.33-0.59-0.77-1.03-1.34-1.31
		c-0.57-0.29-1.21-0.43-1.93-0.43c-0.78,0-1.47,0.16-2.07,0.49c-0.36,0.19-0.67,0.43-0.93,0.72V9.2H71.5v9.07h2.63v-4.48
		c0-0.57,0.09-1.03,0.28-1.38c0.19-0.35,0.44-0.61,0.78-0.79s0.71-0.27,1.12-0.27c0.58,0,1.04,0.17,1.36,0.52
		c0.32,0.35,0.48,0.89,0.48,1.62V18.26z"/>
	<path class="st0" d="M53.22,27.73c-0.1-0.04-0.2-0.08-0.3-0.12c0.45-0.24,0.82-0.56,1.09-0.97c0.3-0.45,0.45-0.99,0.45-1.61
		c0-0.92-0.37-1.66-1.12-2.22c-0.75-0.56-1.86-0.84-3.35-0.84h-5.76v11.8h6.1c1.55,0,2.72-0.28,3.52-0.85s1.2-1.36,1.2-2.37
		c0-0.68-0.16-1.26-0.49-1.74C54.23,28.34,53.79,27.98,53.22,27.73z M46.94,24.02h2.71v0c0.66,0,1.17,0.11,1.53,0.34
		c0.35,0.22,0.53,0.57,0.53,1.04c0,0.47-0.18,0.82-0.53,1.05c-0.35,0.23-0.86,0.35-1.53,0.35h-2.71V24.02z M51.74,31.35
		c-0.37,0.24-0.9,0.35-1.6,0.35h-3.2v-2.92h3.2c0.7,0,1.23,0.12,1.6,0.35c0.37,0.24,0.56,0.61,0.56,1.11
		C52.3,30.75,52.11,31.12,51.74,31.35z"/>
	<path class="st0" d="M63.46,29.2c0,0.54-0.09,0.99-0.28,1.35c-0.19,0.36-0.44,0.63-0.75,0.81c-0.31,0.18-0.67,0.27-1.08,0.27
		c-0.58,0-1.04-0.18-1.36-0.53c-0.32-0.35-0.48-0.91-0.48-1.68V24.7h-2.63v5.12c0,0.92,0.16,1.69,0.49,2.29
		c0.33,0.61,0.78,1.06,1.37,1.35c0.58,0.29,1.26,0.44,2.02,0.44c0.7,0,1.34-0.16,1.92-0.48c0.34-0.19,0.64-0.43,0.89-0.73v1.07h2.49
		V24.7h-2.61V29.2z"/>
	<rect x="68.51" y="24.7" class="st0" width="2.63" height="9.07"/>
	<path class="st0" d="M69.83,20.5c-0.49,0-0.89,0.14-1.2,0.42c-0.3,0.28-0.45,0.63-0.45,1.04c0,0.42,0.15,0.76,0.45,1.04
		c0.3,0.28,0.7,0.42,1.2,0.42c0.49,0,0.89-0.14,1.2-0.43c0.3-0.29,0.45-0.65,0.45-1.09c0-0.42-0.15-0.76-0.46-1.02
		C70.71,20.63,70.31,20.5,69.83,20.5z"/>
	<rect x="73.58" y="21.26" class="st0" width="2.63" height="12.5"/>
	<path class="st0" d="M85.26,25.64c-0.21-0.23-0.44-0.42-0.71-0.58c-0.57-0.34-1.24-0.51-2.01-0.51c-0.85,0-1.62,0.19-2.31,0.58
		c-0.69,0.39-1.22,0.93-1.62,1.63c-0.39,0.7-0.59,1.52-0.59,2.46c0,0.94,0.2,1.76,0.59,2.46c0.39,0.7,0.93,1.24,1.62,1.63
		c0.68,0.39,1.46,0.58,2.31,0.58c0.8,0,1.48-0.17,2.05-0.5c0.3-0.17,0.56-0.4,0.78-0.67v1.04h2.51v-12.5h-2.63V25.64z M85,30.58
		c-0.21,0.38-0.49,0.67-0.83,0.87c-0.35,0.2-0.74,0.29-1.18,0.29c-0.43,0-0.81-0.1-1.16-0.29c-0.35-0.2-0.63-0.49-0.83-0.87
		c-0.21-0.38-0.31-0.83-0.31-1.35c0-0.53,0.1-0.98,0.31-1.35c0.21-0.37,0.49-0.65,0.83-0.85c0.35-0.2,0.74-0.29,1.16-0.29
		c0.44,0,0.83,0.1,1.18,0.29c0.35,0.2,0.63,0.48,0.83,0.85c0.21,0.37,0.31,0.82,0.31,1.35C85.31,29.75,85.21,30.2,85,30.58z"/>
	<path class="st0" d="M96.88,25.14c-0.71-0.38-1.51-0.57-2.4-0.57c-0.92,0-1.75,0.2-2.49,0.6c-0.74,0.4-1.31,0.95-1.72,1.66
		c-0.41,0.71-0.62,1.51-0.62,2.41c0,0.9,0.21,1.7,0.64,2.4c0.43,0.7,1.03,1.26,1.8,1.66c0.78,0.4,1.68,0.61,2.71,0.61
		c0.82,0,1.54-0.13,2.17-0.38c0.63-0.25,1.15-0.61,1.57-1.09l-1.4-1.52c-0.3,0.29-0.64,0.51-1,0.66c-0.37,0.15-0.78,0.22-1.26,0.22
		c-0.55,0-1.02-0.1-1.42-0.29c-0.39-0.2-0.7-0.48-0.93-0.85c-0.12-0.2-0.21-0.43-0.27-0.67h6.86c0.01-0.11,0.02-0.23,0.03-0.36
		c0.01-0.13,0.02-0.24,0.02-0.35c0-0.98-0.21-1.81-0.62-2.51C98.16,26.06,97.6,25.52,96.88,25.14z M92.26,28.44
		c0.04-0.28,0.13-0.54,0.25-0.77c0.19-0.35,0.46-0.63,0.8-0.83c0.34-0.2,0.74-0.29,1.19-0.29c0.45,0,0.84,0.1,1.18,0.29
		c0.34,0.2,0.6,0.47,0.79,0.82c0.13,0.23,0.21,0.49,0.25,0.78H92.26z"/>
	<path class="st0" d="M104.41,25.06c-0.38,0.21-0.7,0.49-0.94,0.83V24.7h-2.51v9.07h2.63v-4.28c0-0.87,0.22-1.51,0.66-1.92
		c0.44-0.42,1.03-0.62,1.77-0.62c0.09,0,0.18,0.01,0.28,0.02c0.1,0.01,0.19,0.03,0.29,0.05v-2.44
		C105.73,24.56,105,24.73,104.41,25.06z"/>
</g>
<rect x="107" y="32" class="st0" width="2" height="2"/>
</svg>
