<?xml version="1.0" encoding="utf-8"?>
<!-- Generator: Adobe Illustrator 27.3.1, SVG Export Plug-In . SVG Version: 6.00 Build 0)  -->
<svg version="1.1" id="Слой_1" xmlns="http://www.w3.org/2000/svg" xmlns:xlink="http://www.w3.org/1999/xlink" x="0px" y="0px"
	 viewBox="0 0 100 100" style="enable-background:new 0 0 100 100;" xml:space="preserve">
<style type="text/css">
	.st0{fill:#0C751B;}
	.st1{fill:#4FC65D;}
</style>
<path class="st0" d="M73.9,79.15h-48c-2.76,0-5-2.24-5-5v-48c0-2.76,2.24-5,5-5h48c2.76,0,5,2.24,5,5v48
	C78.9,76.91,76.66,79.15,73.9,79.15z"/>
<path class="st1" d="M64.27,69.15H35.53c-2.56,0-4.63-2.07-4.63-4.63V35.78c0-2.56,2.07-4.63,4.63-4.63h28.74
	c2.56,0,4.63,2.07,4.63,4.63v28.74C68.9,67.08,66.83,69.15,64.27,69.15z"/>
</svg>
