<?xml version="1.0" encoding="utf-8"?>
<!-- Generator: Adobe Illustrator 27.3.1, SVG Export Plug-In . SVG Version: 6.00 Build 0)  -->
<svg version="1.1" id="Слой_1" xmlns="http://www.w3.org/2000/svg" xmlns:xlink="http://www.w3.org/1999/xlink" x="0px" y="0px"
	 viewBox="0 0 2000 2000" style="enable-background:new 0 0 2000 2000;" xml:space="preserve">
<style type="text/css">
	.st0{fill:#3E72B6;}
	.st1{fill:#68BAFC;}
	.st2{fill:#62A6CF;}
	.st3{fill:#225282;}
	.st4{fill:#316395;}
	.st5{fill:#1D3B5D;}
	.st6{fill:#214167;}
	.st7{fill:#204066;}
	.st8{fill:#305173;}
	.st9{fill:#2D4B6D;}
	.st10{fill:#2C4A6C;}
</style>
<polygon class="st0" points="536.11,706.4 976.52,606.13 1257.29,621.8 1135.8,653.14 1283.19,662.27 987.1,734.34 "/>
<path class="st1" d="M1419.62,629.71c-5.18-2.08-162.33-7.9-162.33-7.9l-121.49,31.34l147.39,9.14L1419.62,629.71z"/>
<polygon class="st2" points="1296.52,869.22 1283.19,662.27 1419.62,629.71 1436.42,833.15 "/>
<polygon class="st3" points="569.84,1114.92 536.11,706.4 987.1,734.34 1005.27,954.4 852.82,944.7 866.35,1154.14 "/>
<polygon class="st4" points="1175.06,1128.65 1448.56,1040.9 1436.42,833.15 1296.52,869.22 1283.19,662.27 987.1,734.34 
	1005.27,954.4 1155.62,923.47 "/>
<polygon class="st5" points="569.84,1114.92 591.45,1315.95 727.62,1341.05 710.49,1133.52 "/>
<polygon class="st5" points="1041.57,1394.09 1023.39,1173.92 866.35,1154.14 876.35,1366.38 "/>
<polygon class="st6" points="710.49,1133.52 866.35,1154.14 876.35,1366.38 727.62,1341.05 "/>
<polygon class="st7" points="852.82,944.7 1005.27,954.4 1023.39,1173.92 866.35,1154.14 "/>
<path class="st8" d="M1175.06,1128.65c-3.73,0.31-151.67,45.27-151.67,45.27l-18.12-219.52l150.35-30.94L1175.06,1128.65z"/>
<polygon class="st9" points="1448.56,1040.9 1464.33,1231.98 1330.65,1282.61 1314.22,1083.68 "/>
<path class="st8" d="M1192.53,1340.27c-1.76-6.12-17.47-211.62-17.47-211.62l139.16-44.97l16.42,198.93L1192.53,1340.27z"/>
<polygon class="st10" points="1023.39,1173.92 1041.57,1394.09 1192.53,1340.27 1175.06,1128.65 "/>
</svg>
