<?xml version="1.0" encoding="utf-8"?>
<!-- Generator: Adobe Illustrator 27.3.1, SVG Export Plug-In . SVG Version: 6.00 Build 0)  -->
<svg version="1.1" id="Слой_1" xmlns="http://www.w3.org/2000/svg" xmlns:xlink="http://www.w3.org/1999/xlink" x="0px" y="0px"
	 viewBox="0 0 4612 2000" style="enable-background:new 0 0 4612 2000;" xml:space="preserve">
<style type="text/css">
	.st0{fill:#3E72B6;}
	.st1{fill:#68BAFC;}
	.st2{fill:#62A6CF;}
	.st3{fill:#225282;}
	.st4{fill:#316395;}
	.st5{fill:#1D3B5D;}
	.st6{fill:#214167;}
	.st7{fill:#204066;}
	.st8{fill:#305173;}
	.st9{fill:#2D4B6D;}
	.st10{fill:#2C4A6C;}
	.st11{fill:#FFFFFF;}
</style>
<polygon class="st0" points="0,706.57 440.4,606.3 721.18,621.97 599.69,653.31 747.08,662.44 450.99,734.51 "/>
<path class="st1" d="M883.51,629.88c-5.18-2.08-162.33-7.9-162.33-7.9l-121.49,31.34l147.39,9.14L883.51,629.88z"/>
<polygon class="st2" points="760.41,869.39 747.08,662.44 883.51,629.88 900.3,833.32 "/>
<polygon class="st3" points="33.73,1115.09 0,706.57 450.99,734.51 469.15,954.58 316.7,944.87 330.23,1154.31 "/>
<polygon class="st4" points="638.95,1128.82 912.44,1041.07 900.3,833.32 760.41,869.39 747.08,662.44 450.99,734.51 469.15,954.58 
	619.5,923.64 "/>
<polygon class="st5" points="33.73,1115.09 55.33,1316.12 191.51,1341.22 174.38,1133.69 "/>
<polygon class="st5" points="505.45,1394.26 487.28,1174.09 330.23,1154.31 340.24,1366.55 "/>
<polygon class="st6" points="174.38,1133.69 330.23,1154.31 340.24,1366.55 191.51,1341.22 "/>
<polygon class="st7" points="316.7,944.87 469.15,954.58 487.28,1174.09 330.23,1154.31 "/>
<path class="st8" d="M638.95,1128.82c-3.73,0.31-151.67,45.27-151.67,45.27l-18.12-219.52l150.35-30.94L638.95,1128.82z"/>
<polygon class="st9" points="912.44,1041.07 928.22,1232.15 794.53,1282.78 778.11,1083.85 "/>
<path class="st8" d="M656.42,1340.44c-1.76-6.12-17.47-211.62-17.47-211.62l139.16-44.97l16.42,198.93L656.42,1340.44z"/>
<polygon class="st10" points="487.28,1174.09 505.45,1394.26 656.42,1340.44 638.95,1128.82 "/>
<g>
	<path class="st11" d="M1434.44,1147.48c-25.93,0-50.74-3.1-74.41-9.3c-23.68-6.2-42.66-14-56.94-23.4l28.75-62.57
		c14.28,8.27,30.91,15.13,49.89,20.58c18.97,5.45,37.67,8.17,56.09,8.17c20.3,0,34.67-2.44,43.13-7.33
		c8.46-4.88,12.68-11.65,12.68-20.3c0-7.13-3.29-12.49-9.87-16.07c-6.58-3.57-15.22-6.29-25.93-8.17
		c-10.71-1.88-22.65-3.75-35.8-5.64c-13.16-1.88-26.21-4.51-39.18-7.89c-12.96-3.38-25-8.17-36.08-14.38
		c-11.09-6.2-19.92-14.75-26.5-25.65c-6.58-10.9-9.87-24.99-9.87-42.28c0-19.17,5.64-36.17,16.91-51.02
		c11.27-14.84,27.24-26.4,47.92-34.67c20.66-8.26,45.66-12.4,74.98-12.4c21.04,0,42.18,2.35,63.42,7.05
		c21.23,4.7,39.18,11.19,53.84,19.45l-29.88,62.58c-14.29-8.26-28.85-14.09-43.69-17.48c-14.85-3.38-29.03-5.07-42.56-5.07
		c-20.3,0-34.95,2.63-43.97,7.89c-9.02,5.27-13.53,12.03-13.53,20.29c0,7.52,3.38,13.25,10.15,17.19c6.77,3.95,15.59,6.86,26.5,8.74
		c10.9,1.88,22.92,3.76,36.08,5.64c13.15,1.88,26.12,4.51,38.9,7.89c12.77,3.38,24.71,8.17,35.8,14.37
		c11.08,6.2,19.92,14.75,26.5,25.65c6.57,10.9,9.87,25,9.87,42.28c0,18.42-5.64,34.86-16.91,49.33
		c-11.27,14.47-27.53,25.84-48.76,34.11C1490.72,1143.34,1464.88,1147.48,1434.44,1147.48z"/>
	<path class="st11" d="M1631.75,1142.96V724.67h87.94v418.29H1631.75z M1704.47,1080.95l2.25-107.67l141.5-133.61h104.85
		l-135.86,138.12l-45.66,37.77L1704.47,1080.95z M1857.81,1142.96l-102.6-127.4l55.25-68.21l153.9,195.62H1857.81z"/>
	<path class="st11" d="M2047.78,797.39c-16.54,0-29.88-4.69-40.03-14.09c-10.15-9.39-15.22-21.04-15.22-34.95
		c0-13.9,5.07-25.55,15.22-34.95c10.15-9.39,23.48-14.09,40.03-14.09c16.16,0,29.4,4.42,39.74,13.25
		c10.33,8.83,15.5,20.21,15.5,34.11c0,14.66-5.07,26.78-15.22,36.36C2077.66,792.6,2064.31,797.39,2047.78,797.39z M2003.81,1142.96
		V839.67h87.94v303.29H2003.81z"/>
	<path class="st11" d="M2357.84,835.16c24.05,0,45.57,4.79,64.55,14.37c18.97,9.58,33.91,24.24,44.82,43.97
		c10.9,19.73,16.35,45.01,16.35,75.82v173.63h-87.94v-160.1c0-24.43-5.36-42.47-16.07-54.12c-10.71-11.65-25.84-17.48-45.38-17.48
		c-13.91,0-26.41,3.01-37.49,9.02c-11.09,6.02-19.73,14.85-25.93,26.5c-6.2,11.65-9.3,27.06-9.3,46.23v149.95h-87.94V839.67h84v84
		l-15.79-25.37c10.9-20.29,26.5-35.89,46.79-46.79C2308.79,840.61,2331.9,835.16,2357.84,835.16z"/>
	<path class="st11" d="M2563.03,1142.96V724.67h87.94v176.45l-5.64,89.63l1.69,90.2v62.01H2563.03z M2741.74,1147.48
		c-25.93,0-48.58-5.54-67.93-16.63c-19.36-11.08-34.11-28.28-44.25-51.58c-10.15-23.3-15.22-52.61-15.22-87.94
		c0-35.7,5.36-65.02,16.07-87.94c10.71-22.92,25.65-40.03,44.82-51.3c19.17-11.27,41.34-16.91,66.52-16.91
		c28.94,0,54.77,6.48,77.51,19.45c22.74,12.97,40.77,31.1,54.12,54.4c13.34,23.31,20.01,50.74,20.01,82.31
		c0,31.57-6.68,59.01-20.01,82.31c-13.34,23.31-31.38,41.44-54.12,54.4C2796.51,1140.99,2770.67,1147.48,2741.74,1147.48z
		 M2727.08,1075.32c14.66,0,27.71-3.28,39.18-9.87c11.46-6.57,20.66-16.25,27.62-29.03c6.95-12.77,10.43-27.81,10.43-45.1
		c0-17.66-3.48-32.7-10.43-45.1c-6.96-12.4-16.16-21.89-27.62-28.47c-11.47-6.57-24.52-9.87-39.18-9.87
		c-14.66,0-27.82,3.29-39.46,9.87c-11.65,6.58-20.96,16.07-27.91,28.47c-6.96,12.4-10.43,27.44-10.43,45.1
		c0,17.29,3.47,32.33,10.43,45.1c6.95,12.78,16.25,22.46,27.91,29.03C2699.27,1072.03,2712.42,1075.32,2727.08,1075.32z"/>
	<path class="st11" d="M3079.98,1147.48c-25.56,0-48.11-4.88-67.65-14.66c-19.55-9.77-34.77-24.8-45.66-45.1
		c-10.9-20.3-16.35-45.85-16.35-76.67V839.67h87.94v157.85c0,25.56,5.36,44.25,16.07,56.09c10.71,11.84,25.83,17.76,45.38,17.76
		c13.53,0,25.55-3,36.08-9.02c10.52-6.01,18.88-15.03,25.09-27.06c6.2-12.02,9.3-27.06,9.3-45.1V839.67h87.38v303.29h-83.43v-84
		l15.22,24.8c-10.53,21.05-25.56,36.93-45.1,47.64C3124.7,1142.12,3103.28,1147.48,3079.98,1147.48z"/>
	<path class="st11" d="M3383.27,797.39c-16.54,0-29.88-4.69-40.03-14.09c-10.15-9.39-15.22-21.04-15.22-34.95
		c0-13.9,5.07-25.55,15.22-34.95c10.15-9.39,23.48-14.09,40.03-14.09c16.16,0,29.4,4.42,39.74,13.25
		c10.33,8.83,15.5,20.21,15.5,34.11c0,14.66-5.07,26.78-15.22,36.36C3413.15,792.6,3399.8,797.39,3383.27,797.39z M3339.29,1142.96
		V839.67h87.94v303.29H3339.29z"/>
	<path class="st11" d="M3508.98,1142.96V724.67h87.94v418.29H3508.98z"/>
	<path class="st11" d="M3808.89,1147.48c-28.57,0-54.31-6.48-77.23-19.45c-22.93-12.96-40.97-31.09-54.12-54.4
		c-13.16-23.3-19.73-50.74-19.73-82.31c0-31.57,6.57-59,19.73-82.31c13.15-23.3,31.19-41.43,54.12-54.4
		c22.92-12.97,48.67-19.45,77.23-19.45c25.55,0,47.92,5.64,67.08,16.91c19.17,11.27,34.01,28.38,44.54,51.3
		c10.52,22.93,15.78,52.24,15.78,87.94c0,35.33-5.07,64.65-15.22,87.94c-10.15,23.31-24.72,40.5-43.69,51.58
		C3858.4,1141.93,3835.57,1147.48,3808.89,1147.48z M3823.54,1075.32c14.66,0,27.81-3.28,39.46-9.87
		c11.65-6.57,20.95-16.25,27.91-29.03c6.95-12.77,10.43-27.81,10.43-45.1c0-17.66-3.48-32.7-10.43-45.1
		c-6.96-12.4-16.26-21.89-27.91-28.47c-11.65-6.57-24.8-9.87-39.46-9.87c-14.29,0-27.25,3.29-38.9,9.87
		c-11.65,6.58-20.96,16.07-27.91,28.47c-6.96,12.4-10.43,27.44-10.43,45.1c0,17.29,3.47,32.33,10.43,45.1
		c6.95,12.78,16.25,22.46,27.91,29.03C3796.29,1072.03,3809.26,1075.32,3823.54,1075.32z M3903.59,1142.96v-62.01l1.69-90.2
		l-5.64-89.63V724.67h87.94v418.29H3903.59z"/>
	<path class="st11" d="M4219.28,1147.48c-34.58,0-64.83-6.77-90.76-20.3c-25.93-13.53-46.04-32.04-60.32-55.53
		c-14.29-23.48-21.42-50.26-21.42-80.33c0-30.06,6.85-56.94,20.58-80.61c13.72-23.68,32.88-42.18,57.5-55.53
		c24.61-13.34,52.33-20.01,83.15-20.01c29.68,0,56.46,6.4,80.33,19.17c23.86,12.78,42.75,30.82,56.66,54.12
		c13.9,23.31,20.86,51.3,20.86,84c0,3.38-0.19,7.24-0.56,11.56c-0.38,4.32-0.76,8.37-1.13,12.12h-246.36v-51.3h200.13l-34.39,15.22
		c0.37-15.78-2.63-29.5-9.02-41.15c-6.39-11.65-15.22-20.76-26.5-27.34c-11.27-6.57-24.44-9.87-39.46-9.87
		c-15.04,0-28.28,3.29-39.74,9.87c-11.47,6.58-20.39,15.78-26.78,27.62c-6.39,11.84-9.58,25.84-9.58,42v13.53
		c0,16.91,3.75,31.57,11.27,43.97c7.51,12.4,17.85,21.9,31.01,28.47c13.15,6.58,28.94,9.87,47.35,9.87c15.78,0,29.78-2.44,42-7.33
		c12.21-4.88,23.4-12.21,33.54-21.99l46.79,50.74c-13.91,15.79-31.39,27.91-52.43,36.36
		C4270.95,1143.25,4246.71,1147.48,4219.28,1147.48z"/>
	<path class="st11" d="M4424.48,1142.96V839.67h84v86.25l-11.84-25.37c9.02-21.42,23.48-37.67,43.41-48.76
		c19.92-11.08,44.16-16.63,72.72-16.63v81.74c-3.38-0.75-6.68-1.31-9.87-1.69c-3.2-0.37-6.3-0.56-9.3-0.56
		c-24.8,0-44.53,6.96-59.19,20.86c-14.66,13.91-21.99,35.33-21.99,64.27v143.19H4424.48z"/>
</g>
</svg>
