<?xml version="1.0" encoding="utf-8"?>
<!-- Generator: Adobe Illustrator 27.3.1, SVG Export Plug-In . SVG Version: 6.00 Build 0)  -->
<svg version="1.1" id="Слой_1" xmlns="http://www.w3.org/2000/svg" xmlns:xlink="http://www.w3.org/1999/xlink" x="0px" y="0px"
	 viewBox="0 0 5915.7 2000" style="enable-background:new 0 0 5915.7 2000;" xml:space="preserve">
<style type="text/css">
	.st0{fill:#3E72B6;}
	.st1{fill:#68BAFC;}
	.st2{fill:#62A6CF;}
	.st3{fill:#225282;}
	.st4{fill:#316395;}
	.st5{fill:#1D3B5D;}
	.st6{fill:#214167;}
	.st7{fill:#204066;}
	.st8{fill:#305173;}
	.st9{fill:#2D4B6D;}
	.st10{fill:#2C4A6C;}
	.st11{fill:#FFFFFF;}
</style>
<polygon class="st0" points="0,623.6 564.8,495 924.9,515.1 769.1,555.3 958.1,567 578.4,659.4 "/>
<path class="st1" d="M1133.1,525.3c-6.6-2.7-208.2-10.1-208.2-10.1l-155.8,40.2l189,11.7L1133.1,525.3z"/>
<polygon class="st2" points="975.2,832.4 958.1,567 1133.1,525.3 1154.6,786.2 "/>
<polygon class="st3" points="43.3,1147.5 0,623.6 578.4,659.4 601.7,941.7 406.2,929.2 423.5,1197.8 "/>
<polygon class="st4" points="819.4,1165.1 1170.2,1052.6 1154.6,786.2 975.2,832.4 958.1,567 578.4,659.4 601.7,941.7 794.5,902 "/>
<polygon class="st5" points="43.3,1147.5 71,1405.3 245.6,1437.5 223.6,1171.4 "/>
<polygon class="st5" points="648.2,1505.5 624.9,1223.2 423.5,1197.8 436.3,1470 "/>
<polygon class="st6" points="223.6,1171.4 423.5,1197.8 436.3,1470 245.6,1437.5 "/>
<polygon class="st7" points="406.2,929.2 601.7,941.7 624.9,1223.2 423.5,1197.8 "/>
<path class="st8" d="M819.4,1165.1c-4.8,0.4-194.5,58.1-194.5,58.1l-23.2-281.5L794.5,902L819.4,1165.1z"/>
<polygon class="st9" points="1170.2,1052.6 1190.4,1297.6 1019,1362.6 997.9,1107.5 "/>
<path class="st8" d="M841.8,1436.5c-2.3-7.8-22.4-271.4-22.4-271.4l178.5-57.7l21.1,255.1L841.8,1436.5z"/>
<polygon class="st10" points="624.9,1223.2 648.2,1505.5 841.8,1436.5 819.4,1165.1 "/>
<g>
	<path class="st11" d="M1839.6,1189.1c-33.3,0-65.1-4-95.4-11.9c-30.4-8-54.7-18-73-30l36.9-80.2c18.3,10.6,39.6,19.4,64,26.4
		c24.3,7,48.3,10.5,71.9,10.5c26,0,44.5-3.1,55.3-9.4c10.8-6.3,16.3-14.9,16.3-26c0-9.1-4.2-16-12.7-20.6
		c-8.4-4.6-19.5-8.1-33.3-10.5c-13.7-2.4-29-4.8-45.9-7.2c-16.9-2.4-33.6-5.8-50.2-10.1c-16.6-4.3-32.1-10.5-46.3-18.4
		c-14.2-8-25.5-18.9-34-32.9s-12.7-32-12.7-54.2c0-24.6,7.2-46.4,21.7-65.4c14.5-19,34.9-33.9,61.5-44.5
		c26.5-10.6,58.6-15.9,96.2-15.9c27,0,54.1,3,81.3,9c27.2,6,50.2,14.4,69,24.9l-38.3,80.3c-18.3-10.6-37-18.1-56-22.4
		c-19-4.3-37.2-6.5-54.6-6.5c-26,0-44.8,3.4-56.4,10.1c-11.6,6.8-17.4,15.4-17.4,26c0,9.6,4.3,17,13,22c8.7,5.1,20,8.8,34,11.2
		c14,2.4,29.4,4.8,46.3,7.2c16.9,2.4,33.5,5.8,49.9,10.1c16.4,4.3,31.7,10.5,45.9,18.4c14.2,8,25.5,18.9,34,32.9
		c8.4,14,12.7,32.1,12.7,54.2c0,23.6-7.2,44.7-21.7,63.3c-14.5,18.6-35.3,33.1-62.5,43.7C1911.8,1183.8,1878.7,1189.1,1839.6,1189.1
		z"/>
	<path class="st11" d="M2092.7,1183.3V646.8h112.8v536.4H2092.7z M2185.9,1103.7l2.9-138.1l181.5-171.4h134.5l-174.2,177.1
		l-58.6,48.4L2185.9,1103.7z M2382.6,1183.3L2251,1019.9l70.9-87.5l197.4,250.9L2382.6,1183.3L2382.6,1183.3z"/>
	<path class="st11" d="M2626.2,740.1c-21.2,0-38.3-6-51.3-18.1c-13-12-19.5-27-19.5-44.8c0-17.8,6.5-32.8,19.5-44.8
		c13-12,30.1-18.1,51.3-18.1c20.7,0,37.7,5.7,51,17c13.2,11.3,19.9,25.9,19.9,43.7c0,18.8-6.5,34.3-19.5,46.6
		C2664.5,733.9,2647.4,740.1,2626.2,740.1z M2569.8,1183.3v-389h112.8v389H2569.8z"/>
	<path class="st11" d="M3023.9,788.5c30.8,0,58.4,6.1,82.8,18.4c24.3,12.3,43.5,31.1,57.5,56.4c14,25.3,21,57.7,21,97.2v222.7
		h-112.8V977.9c0-31.3-6.9-54.5-20.6-69.4c-13.7-14.9-33.1-22.4-58.2-22.4c-17.8,0-33.9,3.9-48.1,11.6c-14.2,7.7-25.3,19-33.3,34
		c-8,14.9-11.9,34.7-11.9,59.3v192.3h-112.8V794.3h107.7V902l-20.3-32.5c14-26,34-46,60-60C2961,795.5,2990.6,788.5,3023.9,788.5z"
		/>
	<path class="st11" d="M3287,1183.3V646.8h112.8v226.3l-7.2,114.9l2.2,115.7v79.5H3287z M3516.2,1189.1c-33.3,0-62.3-7.1-87.1-21.3
		c-24.8-14.2-43.7-36.3-56.7-66.1c-13-29.9-19.5-67.5-19.5-112.8c0-45.8,6.9-83.4,20.6-112.8c13.7-29.4,32.9-51.3,57.5-65.8
		c24.6-14.5,53-21.7,85.3-21.7c37.1,0,70.2,8.3,99.4,24.9c29.2,16.6,52.3,39.9,69.4,69.8c17.1,29.9,25.7,65.1,25.7,105.6
		s-8.6,75.7-25.7,105.6c-17.1,29.9-40.2,53.1-69.4,69.8C3586.4,1180.7,3553.3,1189.1,3516.2,1189.1z M3497.4,1096.5
		c18.8,0,35.5-4.2,50.2-12.7c14.7-8.4,26.5-20.8,35.4-37.2c8.9-16.4,13.4-35.7,13.4-57.8c0-22.6-4.5-41.9-13.4-57.8
		c-8.9-15.9-20.7-28.1-35.4-36.5c-14.7-8.4-31.4-12.7-50.2-12.7c-18.8,0-35.7,4.2-50.6,12.7c-14.9,8.4-26.9,20.6-35.8,36.5
		c-8.9,15.9-13.4,35.2-13.4,57.8c0,22.2,4.5,41.5,13.4,57.8c8.9,16.4,20.8,28.8,35.8,37.2
		C3461.7,1092.3,3478.6,1096.5,3497.4,1096.5z"/>
	<path class="st11" d="M3950,1189.1c-32.8,0-61.7-6.3-86.8-18.8c-25.1-12.5-44.6-31.8-58.6-57.8c-14-26-21-58.8-21-98.3V794.3h112.8
		v202.4c0,32.8,6.9,56.7,20.6,71.9c13.7,15.2,33.1,22.8,58.2,22.8c17.4,0,32.8-3.8,46.3-11.6c13.5-7.7,24.2-19.3,32.2-34.7
		c8-15.4,11.9-34.7,11.9-57.8v-193h112.1v389h-107v-107.7l19.5,31.8c-13.5,27-32.8,47.4-57.8,61.1
		C4007.3,1182.2,3979.9,1189.1,3950,1189.1z"/>
	<path class="st11" d="M4338.9,740.1c-21.2,0-38.3-6-51.3-18.1c-13-12-19.5-27-19.5-44.8c0-17.8,6.5-32.8,19.5-44.8
		c13-12,30.1-18.1,51.3-18.1c20.7,0,37.7,5.7,51,17c13.2,11.3,19.9,25.9,19.9,43.7c0,18.8-6.5,34.3-19.5,46.6
		C4377.3,733.9,4360.1,740.1,4338.9,740.1z M4282.5,1183.3v-389h112.8v389H4282.5z"/>
	<path class="st11" d="M4500.2,1183.3V646.8h112.8v536.4H4500.2z"/>
	<path class="st11" d="M4884.8,1189.1c-36.6,0-69.7-8.3-99-24.9c-29.4-16.6-52.5-39.9-69.4-69.8c-16.9-29.9-25.3-65.1-25.3-105.6
		s8.4-75.7,25.3-105.6c16.9-29.9,40-53.1,69.4-69.8c29.4-16.6,62.4-24.9,99-24.9c32.8,0,61.5,7.2,86,21.7
		c24.6,14.5,43.6,36.4,57.1,65.8c13.5,29.4,20.2,67,20.2,112.8c0,45.3-6.5,82.9-19.5,112.8c-13,29.9-31.7,51.9-56,66.1
		C4948.3,1181.9,4919,1189.1,4884.8,1189.1z M4903.6,1096.5c18.8,0,35.7-4.2,50.6-12.7c14.9-8.4,26.9-20.8,35.8-37.2
		c8.9-16.4,13.4-35.7,13.4-57.8c0-22.6-4.5-41.9-13.4-57.8c-8.9-15.9-20.9-28.1-35.8-36.5c-14.9-8.4-31.8-12.7-50.6-12.7
		c-18.3,0-34.9,4.2-49.9,12.7c-14.9,8.4-26.9,20.6-35.8,36.5c-8.9,15.9-13.4,35.2-13.4,57.8c0,22.2,4.5,41.5,13.4,57.8
		c8.9,16.4,20.8,28.8,35.8,37.2C4868.6,1092.3,4885.3,1096.5,4903.6,1096.5z M5006.2,1183.3v-79.5l2.2-115.7l-7.2-114.9V646.8H5114
		v536.4H5006.2z"/>
	<path class="st11" d="M5411.1,1189.1c-44.3,0-83.1-8.7-116.4-26c-33.3-17.4-59-41.1-77.4-71.2c-18.3-30.1-27.5-64.5-27.5-103
		c0-38.6,8.8-73,26.4-103.4c17.6-30.4,42.2-54.1,73.7-71.2c31.6-17.1,67.1-25.7,106.6-25.7c38.1,0,72.4,8.2,103,24.6
		c30.6,16.4,54.8,39.5,72.7,69.4c17.8,29.9,26.8,65.8,26.8,107.7c0,4.3-0.2,9.3-0.7,14.8c-0.5,5.5-1,10.7-1.4,15.5H5281v-65.8h256.7
		l-44.1,19.5c0.5-20.2-3.4-37.8-11.6-52.8c-8.2-14.9-19.5-26.6-34-35.1c-14.5-8.4-31.3-12.7-50.6-12.7c-19.3,0-36.3,4.2-51,12.7
		c-14.7,8.4-26.1,20.2-34.3,35.4c-8.2,15.2-12.3,33.1-12.3,53.9v17.4c0,21.7,4.8,40.5,14.5,56.4c9.6,15.9,22.9,28.1,39.8,36.5
		c16.9,8.4,37.1,12.7,60.7,12.7c20.2,0,38.2-3.1,53.9-9.4c15.7-6.3,30-15.7,43-28.2l60,65.1c-17.8,20.3-40.3,35.8-67.2,46.6
		C5477.4,1183.6,5446.3,1189.1,5411.1,1189.1z"/>
	<path class="st11" d="M5674.3,1183.3v-389H5782v110.6l-15.2-32.5c11.6-27.5,30.1-48.3,55.7-62.5c25.5-14.2,56.6-21.3,93.3-21.3
		v104.8c-4.3-1-8.6-1.7-12.7-2.2c-4.1-0.5-8.1-0.7-11.9-0.7c-31.8,0-57.1,8.9-75.9,26.8c-18.8,17.8-28.2,45.3-28.2,82.4v183.6
		L5674.3,1183.3L5674.3,1183.3z"/>
</g>
</svg>
