<?xml version="1.0" encoding="utf-8"?>
<!-- Generator: Adobe Illustrator 27.3.1, SVG Export Plug-In . SVG Version: 6.00 Build 0)  -->
<svg version="1.1" id="Слой_1" xmlns="http://www.w3.org/2000/svg" xmlns:xlink="http://www.w3.org/1999/xlink" x="0px" y="0px"
	 viewBox="0 0 4612 2000" style="enable-background:new 0 0 4612 2000;" xml:space="preserve">
<style type="text/css">
	.st0{fill:#3E72B6;}
	.st1{fill:#68BAFC;}
	.st2{fill:#62A6CF;}
	.st3{fill:#225282;}
	.st4{fill:#316395;}
	.st5{fill:#1D3B5D;}
	.st6{fill:#214167;}
	.st7{fill:#204066;}
	.st8{fill:#305173;}
	.st9{fill:#2D4B6D;}
	.st10{fill:#2C4A6C;}
	.st11{fill:#FFFFFF;}
	.st12{fill:#59E252;}
</style>
<polygon class="st0" points="0,706.6 440.4,606.3 721.2,622 599.7,653.3 747.1,662.4 451,734.5 "/>
<path class="st1" d="M883.5,629.9c-5.2-2.1-162.3-7.9-162.3-7.9l-121.5,31.3l147.4,9.1L883.5,629.9z"/>
<polygon class="st2" points="760.4,869.4 747.1,662.4 883.5,629.9 900.3,833.3 "/>
<polygon class="st3" points="33.7,1115.1 0,706.6 451,734.5 469.1,954.6 316.7,944.9 330.2,1154.3 "/>
<polygon class="st4" points="639,1128.8 912.4,1041.1 900.3,833.3 760.4,869.4 747.1,662.4 451,734.5 469.1,954.6 619.5,923.6 "/>
<polygon class="st5" points="33.7,1115.1 55.3,1316.1 191.5,1341.2 174.4,1133.7 "/>
<polygon class="st5" points="505.5,1394.3 487.3,1174.1 330.2,1154.3 340.2,1366.6 "/>
<polygon class="st6" points="174.4,1133.7 330.2,1154.3 340.2,1366.6 191.5,1341.2 "/>
<polygon class="st7" points="316.7,944.9 469.1,954.6 487.3,1174.1 330.2,1154.3 "/>
<path class="st8" d="M639,1128.8c-3.7,0.3-151.7,45.3-151.7,45.3l-18.1-219.5l150.3-30.9L639,1128.8z"/>
<polygon class="st9" points="912.4,1041.1 928.2,1232.2 794.5,1282.8 778.1,1083.8 "/>
<path class="st8" d="M656.4,1340.4c-1.8-6.1-17.5-211.6-17.5-211.6l139.2-45l16.4,198.9L656.4,1340.4z"/>
<polygon class="st10" points="487.3,1174.1 505.5,1394.3 656.4,1340.4 639,1128.8 "/>
<g>
	<path class="st11" d="M1434.4,1147.5c-25.9,0-50.7-3.1-74.4-9.3c-23.7-6.2-42.7-14-56.9-23.4l28.8-62.6
		c14.3,8.3,30.9,15.1,49.9,20.6c19,5.4,37.7,8.2,56.1,8.2c20.3,0,34.7-2.4,43.1-7.3c8.5-4.9,12.7-11.7,12.7-20.3
		c0-7.1-3.3-12.5-9.9-16.1c-6.6-3.6-15.2-6.3-25.9-8.2c-10.7-1.9-22.7-3.8-35.8-5.6c-13.2-1.9-26.2-4.5-39.2-7.9
		c-13-3.4-25-8.2-36.1-14.4c-11.1-6.2-19.9-14.8-26.5-25.7s-9.9-25-9.9-42.3c0-19.2,5.6-36.2,16.9-51c11.3-14.8,27.2-26.4,47.9-34.7
		c20.7-8.3,45.7-12.4,75-12.4c21,0,42.2,2.3,63.4,7c21.2,4.7,39.2,11.2,53.8,19.5l-29.9,62.6c-14.3-8.3-28.8-14.1-43.7-17.5
		c-14.8-3.4-29-5.1-42.6-5.1c-20.3,0-34.9,2.6-44,7.9c-9,5.3-13.5,12-13.5,20.3c0,7.5,3.4,13.2,10.2,17.2c6.8,4,15.6,6.9,26.5,8.7
		c10.9,1.9,22.9,3.8,36.1,5.6c13.2,1.9,26.1,4.5,38.9,7.9c12.8,3.4,24.7,8.2,35.8,14.4c11.1,6.2,19.9,14.8,26.5,25.7
		c6.6,10.9,9.9,25,9.9,42.3c0,18.4-5.6,34.9-16.9,49.3s-27.5,25.8-48.8,34.1C1490.7,1143.3,1464.9,1147.5,1434.4,1147.5z"/>
	<path class="st11" d="M1631.8,1143V724.7h87.9V1143H1631.8z M1704.5,1080.9l2.2-107.7l141.5-133.6h104.8l-135.9,138.1l-45.7,37.8
		L1704.5,1080.9z M1857.8,1143l-102.6-127.4l55.2-68.2l153.9,195.6L1857.8,1143L1857.8,1143z"/>
	<path class="st11" d="M2047.8,797.4c-16.5,0-29.9-4.7-40-14.1c-10.2-9.4-15.2-21-15.2-35c0-13.9,5.1-25.5,15.2-35
		c10.2-9.4,23.5-14.1,40-14.1c16.2,0,29.4,4.4,39.7,13.2c10.3,8.8,15.5,20.2,15.5,34.1c0,14.7-5.1,26.8-15.2,36.4
		C2077.7,792.6,2064.3,797.4,2047.8,797.4z M2003.8,1143V839.7h87.9V1143H2003.8z"/>
	<path class="st11" d="M2357.8,835.2c24.1,0,45.6,4.8,64.6,14.4c19,9.6,33.9,24.2,44.8,44c10.9,19.7,16.4,45,16.4,75.8v173.6h-87.9
		V982.8c0-24.4-5.4-42.5-16.1-54.1s-25.8-17.5-45.4-17.5c-13.9,0-26.4,3-37.5,9c-11.1,6-19.7,14.8-25.9,26.5s-9.3,27.1-9.3,46.2
		v149.9h-87.9V839.7h84v84l-15.8-25.4c10.9-20.3,26.5-35.9,46.8-46.8C2308.8,840.6,2331.9,835.2,2357.8,835.2z"/>
	<path class="st11" d="M2563,1143V724.7h87.9v176.5l-5.6,89.6l1.7,90.2v62H2563z M2741.7,1147.5c-25.9,0-48.6-5.5-67.9-16.6
		c-19.4-11.1-34.1-28.3-44.2-51.6c-10.1-23.3-15.2-52.6-15.2-87.9c0-35.7,5.4-65,16.1-87.9s25.6-40,44.8-51.3
		c19.2-11.3,41.3-16.9,66.5-16.9c28.9,0,54.8,6.5,77.5,19.5c22.7,13,40.8,31.1,54.1,54.4c13.3,23.3,20,50.7,20,82.3s-6.7,59-20,82.3
		c-13.3,23.3-31.4,41.4-54.1,54.4C2796.5,1141,2770.7,1147.5,2741.7,1147.5z M2727.1,1075.3c14.7,0,27.7-3.3,39.2-9.9
		c11.5-6.6,20.7-16.2,27.6-29c6.9-12.8,10.4-27.8,10.4-45.1c0-17.7-3.5-32.7-10.4-45.1c-7-12.4-16.2-21.9-27.6-28.5
		c-11.5-6.6-24.5-9.9-39.2-9.9s-27.8,3.3-39.5,9.9c-11.6,6.6-21,16.1-27.9,28.5c-7,12.4-10.4,27.4-10.4,45.1
		c0,17.3,3.5,32.3,10.4,45.1c6.9,12.8,16.2,22.5,27.9,29C2699.3,1072,2712.4,1075.3,2727.1,1075.3z"/>
	<path class="st11" d="M3080,1147.5c-25.6,0-48.1-4.9-67.6-14.7c-19.6-9.8-34.8-24.8-45.7-45.1c-10.9-20.3-16.4-45.8-16.4-76.7
		V839.7h87.9v157.9c0,25.6,5.4,44.2,16.1,56.1s25.8,17.8,45.4,17.8c13.5,0,25.6-3,36.1-9c10.5-6,18.9-15,25.1-27.1
		c6.2-12,9.3-27.1,9.3-45.1V839.7h87.4V1143h-83.4v-84l15.2,24.8c-10.5,21.1-25.6,36.9-45.1,47.6
		C3124.7,1142.1,3103.3,1147.5,3080,1147.5z"/>
	<path class="st11" d="M3383.3,797.4c-16.5,0-29.9-4.7-40-14.1c-10.1-9.4-15.2-21-15.2-35c0-13.9,5.1-25.5,15.2-35
		c10.1-9.4,23.5-14.1,40-14.1c16.2,0,29.4,4.4,39.7,13.2c10.3,8.8,15.5,20.2,15.5,34.1c0,14.7-5.1,26.8-15.2,36.4
		C3413.1,792.6,3399.8,797.4,3383.3,797.4z M3339.3,1143V839.7h87.9V1143H3339.3z"/>
	<path class="st11" d="M3509,1143V724.7h87.9V1143H3509z"/>
	<path class="st11" d="M3808.9,1147.5c-28.6,0-54.3-6.5-77.2-19.4c-22.9-13-41-31.1-54.1-54.4c-13.2-23.3-19.7-50.7-19.7-82.3
		s6.6-59,19.7-82.3c13.1-23.3,31.2-41.4,54.1-54.4c22.9-13,48.7-19.5,77.2-19.5c25.6,0,47.9,5.6,67.1,16.9
		c19.2,11.3,34,28.4,44.5,51.3c10.5,22.9,15.8,52.2,15.8,87.9c0,35.3-5.1,64.7-15.2,87.9c-10.1,23.3-24.7,40.5-43.7,51.6
		C3858.4,1141.9,3835.6,1147.5,3808.9,1147.5z M3823.5,1075.3c14.7,0,27.8-3.3,39.5-9.9c11.6-6.6,20.9-16.2,27.9-29
		c6.9-12.8,10.4-27.8,10.4-45.1c0-17.7-3.5-32.7-10.4-45.1c-7-12.4-16.3-21.9-27.9-28.5c-11.6-6.6-24.8-9.9-39.5-9.9
		c-14.3,0-27.2,3.3-38.9,9.9s-21,16.1-27.9,28.5c-7,12.4-10.4,27.4-10.4,45.1c0,17.3,3.5,32.3,10.4,45.1c6.9,12.8,16.2,22.5,27.9,29
		C3796.3,1072,3809.3,1075.3,3823.5,1075.3z M3903.6,1143v-62l1.7-90.2l-5.6-89.6V724.7h87.9V1143H3903.6z"/>
	<path class="st11" d="M4219.3,1147.5c-34.6,0-64.8-6.8-90.8-20.3c-25.9-13.5-46-32-60.3-55.5c-14.3-23.5-21.4-50.3-21.4-80.3
		c0-30.1,6.9-56.9,20.6-80.6c13.7-23.7,32.9-42.2,57.5-55.5c24.6-13.3,52.3-20,83.1-20c29.7,0,56.5,6.4,80.3,19.2
		c23.9,12.8,42.8,30.8,56.7,54.1c13.9,23.3,20.9,51.3,20.9,84c0,3.4-0.2,7.2-0.6,11.6c-0.4,4.3-0.8,8.4-1.1,12.1h-246.4v-51.3h200.1
		l-34.4,15.2c0.4-15.8-2.6-29.5-9-41.2s-15.2-20.8-26.5-27.3c-11.3-6.6-24.4-9.9-39.5-9.9c-15,0-28.3,3.3-39.7,9.9
		c-11.5,6.6-20.4,15.8-26.8,27.6c-6.4,11.8-9.6,25.8-9.6,42v13.5c0,16.9,3.8,31.6,11.3,44c7.5,12.4,17.9,21.9,31,28.5
		c13.1,6.6,28.9,9.9,47.4,9.9c15.8,0,29.8-2.4,42-7.3c12.2-4.9,23.4-12.2,33.5-22l46.8,50.7c-13.9,15.8-31.4,27.9-52.4,36.4
		C4271,1143.2,4246.7,1147.5,4219.3,1147.5z"/>
	<path class="st11" d="M4424.5,1143V839.7h84v86.2l-11.8-25.4c9-21.4,23.5-37.7,43.4-48.8c19.9-11.1,44.2-16.6,72.7-16.6v81.7
		c-3.4-0.8-6.7-1.3-9.9-1.7c-3.2-0.4-6.3-0.6-9.3-0.6c-24.8,0-44.5,7-59.2,20.9c-14.7,13.9-22,35.3-22,64.3V1143L4424.5,1143
		L4424.5,1143z"/>
</g>
<path class="st12" d="M5277.4,754.5h-551.8c-62.9,0-113.9-51-113.9-113.9V490c0-62.9,51-113.9,113.9-113.9h551.8
	c62.9,0,113.9,51,113.9,113.9v150.6C5391.3,703.5,5340.3,754.5,5277.4,754.5z"/>
<g>
	<path d="M4735.8,655V473.9h30.3v81l-2.4,34.6l1.2,34.6V655H4735.8z M4807.8,656.7c-10.9,0-20.7-2.4-29.5-7.2
		c-8.8-4.8-15.6-12.2-20.4-22.1c-4.8-9.9-7.2-22.4-7.2-37.6c0-15.3,2.5-27.9,7.6-37.7c5-9.8,11.9-17.2,20.5-22
		c8.6-4.8,18.3-7.2,29-7.2c12.7,0,24,2.8,33.9,8.3c9.9,5.5,17.8,13.3,23.5,23.4c5.8,10.1,8.7,21.8,8.7,35.1
		c0,13.5-2.9,25.3-8.7,35.3c-5.8,10-13.6,17.8-23.5,23.3C4831.7,653.9,4820.4,656.7,4807.8,656.7z M4804.1,630.8
		c7.5,0,14.1-1.7,19.9-5c5.8-3.3,10.4-8.1,13.8-14.4c3.4-6.3,5.1-13.5,5.1-21.6c0-8.3-1.7-15.5-5.1-21.6c-3.4-6.1-8-10.8-13.8-14.2
		c-5.8-3.3-12.4-5-19.9-5c-7.2,0-13.7,1.7-19.5,5c-5.9,3.3-10.5,8.1-13.9,14.2c-3.4,6.1-5.1,13.3-5.1,21.6c0,8.1,1.7,15.3,5.1,21.6
		c3.4,6.3,8.1,11.1,13.9,14.4C4790.4,629.1,4796.9,630.8,4804.1,630.8z"/>
	<path d="M4964.2,656.7c-14.5,0-27.1-2.9-37.9-8.7c-10.8-5.8-19.2-13.7-25.1-23.7c-5.9-10-8.9-21.5-8.9-34.5c0-13,2.9-24.5,8.7-34.5
		c5.8-10,13.7-17.9,23.9-23.7c10.2-5.8,21.8-8.7,34.8-8.7c12.7,0,24,2.8,33.9,8.4c9.9,5.6,17.7,13.5,23.4,23.5
		c5.7,10.1,8.5,22,8.5,35.9c0,1.1,0,2.6-0.1,4.3c-0.1,1.7-0.2,3.2-0.4,4.5h-108.6v-20.3h92.5l-12.2,6.3c0.2-7.3-1.3-13.9-4.5-19.6
		c-3.2-5.8-7.5-10.2-13.1-13.4c-5.5-3.2-12-4.8-19.5-4.8c-7.3,0-13.9,1.6-19.6,4.8c-5.8,3.2-10.2,7.7-13.3,13.5
		c-3.1,5.9-4.6,12.6-4.6,20.3v4.9c0,7.8,1.7,14.7,5.2,20.7c3.5,6,8.5,10.7,15,14c6.5,3.3,14.1,5,22.7,5c7.3,0,13.9-1.2,19.8-3.7
		c5.9-2.4,11.1-6,15.6-10.7l16.6,19c-6,6.8-13.5,12-22.3,15.6C4985.7,654.9,4975.5,656.7,4964.2,656.7z"/>
	<path d="M5037.4,550v-24.4h86.9V550H5037.4z M5103.7,656.7c-14.3,0-25.4-3.7-33.2-11.1c-7.8-7.4-11.7-18.3-11.7-32.6V495.9h30.3
		V612c0,6.2,1.6,11,4.9,14.4c3.3,3.4,7.8,5.1,13.7,5.1c6.7,0,12.2-1.8,16.6-5.4l8.8,21.7c-3.7,2.9-8.2,5.1-13.4,6.6
		C5114.4,655.9,5109.1,656.7,5103.7,656.7z"/>
	<path d="M5197.4,656.7c-9.8,0-18.3-1.7-25.6-5c-7.3-3.3-13-8-17-13.9c-4-5.9-6-12.6-6-20.1c0-7.3,1.7-13.9,5.2-19.8
		c3.5-5.9,9.2-10.5,17.2-13.9c8-3.4,18.5-5.1,31.7-5.1h37.8v20.3h-35.6c-10.2,0-17.2,1.7-20.9,5c-3.7,3.3-5.5,7.5-5.5,12.6
		c0,5.4,2.2,9.7,6.6,12.9c4.4,3.3,10.5,4.9,18.3,4.9c7.5,0,14.2-1.7,20.1-5.1c5.9-3.4,10.3-8.5,13.1-15.1l4.9,18.3
		c-2.9,7.6-8.1,13.6-15.6,17.8C5218.7,654.6,5209.1,656.7,5197.4,656.7z M5238.4,655v-26.6l-1.5-5.4v-46.1c0-8.9-2.7-15.9-8.2-20.9
		c-5.5-5-13.7-7.4-24.8-7.4c-7.2,0-14.2,1.1-21.2,3.4c-7,2.3-13,5.5-18.1,9.5l-12-22.2c7.2-5.4,15.5-9.4,25.1-12.2
		c9.6-2.8,19.6-4.1,30-4.1c19,0,33.7,4.6,43.9,13.7c10.2,9.1,15.4,23.1,15.4,42V655H5238.4z"/>
</g>
</svg>
