<?xml version="1.0" encoding="utf-8"?>
<!-- Generator: Adobe Illustrator 27.3.1, SVG Export Plug-In . SVG Version: 6.00 Build 0)  -->
<svg version="1.1" id="Слой_1" xmlns="http://www.w3.org/2000/svg" xmlns:xlink="http://www.w3.org/1999/xlink" x="0px" y="0px"
	 viewBox="0 0 2000 2000" style="enable-background:new 0 0 2000 2000;" xml:space="preserve">
<style type="text/css">
	.st0{fill:#3E72B6;}
	.st1{fill:#68BAFC;}
	.st2{fill:#62A6CF;}
	.st3{fill:#225282;}
	.st4{fill:#316395;}
	.st5{fill:#1D3B5D;}
	.st6{fill:#214167;}
	.st7{fill:#204066;}
	.st8{fill:#305173;}
	.st9{fill:#2D4B6D;}
	.st10{fill:#2C4A6C;}
</style>
<polygon class="st0" points="188.3,488.45 955.17,313.84 1444.09,341.13 1232.54,395.69 1489.19,411.61 973.6,537.1 "/>
<path class="st1" d="M1726.75,354.89c-9.03-3.62-282.66-13.76-282.66-13.76l-211.55,54.56l256.65,15.91L1726.75,354.89z"/>
<polygon class="st2" points="1512.4,771.96 1489.19,411.61 1726.75,354.89 1756,709.15 "/>
<polygon class="st3" points="247.03,1199.8 188.3,488.45 973.6,537.1 1005.24,920.29 739.78,903.4 763.34,1268.09 "/>
<polygon class="st4" points="1300.9,1223.71 1777.14,1070.92 1756,709.15 1512.4,771.96 1489.19,411.61 973.6,537.1 1005.24,920.29 
	1267.04,866.42 "/>
<polygon class="st5" points="247.03,1199.8 284.66,1549.85 521.78,1593.57 491.94,1232.19 "/>
<polygon class="st5" points="1068.45,1685.93 1036.8,1302.54 763.34,1268.09 780.75,1637.66 "/>
<polygon class="st6" points="491.94,1232.19 763.34,1268.09 780.75,1637.66 521.78,1593.57 "/>
<polygon class="st7" points="739.78,903.4 1005.24,920.29 1036.8,1302.54 763.34,1268.09 "/>
<path class="st8" d="M1300.9,1223.71c-6.5,0.54-264.11,78.83-264.11,78.83l-31.56-382.25l261.8-53.87L1300.9,1223.71z"/>
<polygon class="st9" points="1777.14,1070.92 1804.61,1403.64 1571.82,1491.79 1543.23,1145.4 "/>
<path class="st8" d="M1331.32,1592.21c-3.06-10.66-30.42-368.49-30.42-368.49l242.32-78.31l28.6,346.39L1331.32,1592.21z"/>
<polygon class="st10" points="1036.8,1302.54 1068.45,1685.93 1331.32,1592.21 1300.9,1223.71 "/>
</svg>
