<?xml version="1.0" encoding="utf-8"?>
<!-- Generator: Adobe Illustrator 27.3.1, SVG Export Plug-In . SVG Version: 6.00 Build 0)  -->
<svg version="1.1" id="Слой_1" xmlns="http://www.w3.org/2000/svg" xmlns:xlink="http://www.w3.org/1999/xlink" x="0px" y="0px"
	 viewBox="0 0 8674 2000" style="enable-background:new 0 0 8674 2000;" xml:space="preserve">
<style type="text/css">
	.st0{fill:#FFFFFF;}
	.st1{fill:#008CF7;}
	.st2{fill:#FF5D00;}
</style>
<path class="st0" d="M1310,185H690.2c-278.9,0-505.1,226.1-505.1,505.1v619.8c0,279,226.1,505.2,505.1,505.2h619.8
	c278.9,0,505.1-226.1,505.1-505.1V690.1C1815.1,411.1,1588.9,185,1310,185z M1497.2,1189c0,170.2-138,308.1-308.1,308.1H811.1
	c-170.2,0-308.1-138-308.1-308.1V811c0-170.2,138-308.1,308.1-308.1h378.1c170.2,0,308.1,138,308.1,308.1L1497.2,1189L1497.2,1189z"
	/>
<path class="st1" d="M185.9,689.8v528.7L314,1110.8l565.1-27l-266.4-472l502.8,30.6L784.9,184.2h-93.3
	C412.3,184.2,185.9,410.6,185.9,689.8z"/>
<g>
	<path class="st2" d="M1164.1,1815.8h146.3c45.8,0,90.1-6,132.2-17.5L1261,1641.8L1164.1,1815.8z"/>
	<path class="st2" d="M1393.1,883.3l337.8,450.8l-337.8-94.1l51.3,557.7c214.2-58.7,371.4-254.9,371.4-487.6V914.7L1393.1,883.3z"/>
</g>
<g>
	<path class="st0" d="M2783.6,1351.1c-49.2,0-96.5-6.6-141.9-19.8c-45.4-13.2-81.9-30.3-109.4-51.4l48.3-107.2
		c25.8,18.7,56.8,34.1,93.2,46.1c36.3,12,73,18,109.9,18c28.1,0,50.8-2.9,68.1-8.8c17.3-5.9,30-13.6,38.2-23.3
		c8.2-9.7,12.3-21,12.3-33.9c0-16.4-6.4-29.4-19.3-39.1c-12.9-9.7-30-17.6-51.4-23.7c-21.4-6.1-44.7-12-69.9-17.6
		c-25.2-5.6-50.5-12.3-76-20.2s-48.9-18.5-70.3-31.6c-21.4-13.2-38.4-30.5-51-51.9c-12.6-21.4-18.9-48.2-18.9-80.4
		c0-35.2,9.4-67.2,28.1-96.2c18.7-29,47.3-52.1,85.7-69.4c38.4-17.3,86.6-25.9,144.6-25.9c38.7,0,76.9,4.7,114.7,14.1
		s70.7,22.8,98.9,40.4l-44.8,107.2c-27.5-15.8-56-27.7-85.3-35.6c-29.3-7.9-57.4-11.9-84.4-11.9c-28.1,0-50.7,3.1-67.7,9.2
		c-17,6.2-29.5,14.5-37.3,25c-7.9,10.6-11.9,22.3-11.9,35.2c0,16.4,6.4,29.6,19.3,39.6c12.9,10,29.9,17.7,51,23.3
		c21.1,5.6,44.5,11.1,70.3,16.7c25.8,5.6,51.3,12.5,76.5,20.7s48.3,18.6,69.4,31.2c21.1,12.6,38.2,29.6,51.4,51
		c13.2,21.4,19.8,47.9,19.8,79.5c0,34.6-9.5,66.2-28.6,94.9c-19,28.7-47.9,51.9-86.6,69.4
		C2889.9,1342.3,2841.6,1351.1,2783.6,1351.1z"/>
	<path class="st0" d="M3131.6,1340.6V688.4h137.1v652.1H3131.6z M3245,1243.9l3.5-167.9l220.6-208.3h163.5l-211.8,215.3l-71.2,58.9
		L3245,1243.9z M3484,1340.6l-159.9-198.6l86.1-106.3l239.9,305H3484z"/>
	<path class="st0" d="M3780.1,801.8c-25.8,0-46.6-7.3-62.4-22c-15.8-14.7-23.7-32.8-23.7-54.5c0-21.7,7.9-39.8,23.7-54.5
		c15.8-14.7,36.6-22,62.4-22c25.2,0,45.8,6.9,62,20.7c16.1,13.8,24.2,31.5,24.2,53.2c0,22.9-7.9,41.7-23.7,56.7
		S3805.9,801.8,3780.1,801.8z M3711.6,1340.6V867.7h137.1v472.8H3711.6z"/>
	<path class="st0" d="M4263.6,860.7c37.5,0,71,7.5,100.6,22.4c29.6,14.9,52.9,37.8,69.9,68.6c17,30.8,25.5,70.2,25.5,118.2v270.7
		h-137.1V1091c0-38.1-8.3-66.2-25-84.4c-16.7-18.2-40.3-27.2-70.7-27.2c-21.7,0-41.2,4.7-58.4,14.1c-17.3,9.4-30.8,23.1-40.4,41.3
		c-9.7,18.2-14.5,42.2-14.5,72.1v233.8h-137.1V867.7h131v131l-24.6-39.5c17-31.6,41.3-56,72.9-73
		C4187.1,869.2,4223.2,860.7,4263.6,860.7z"/>
	<path class="st0" d="M4593.2,1340.6V725.4h300.6c77.3,0,135.5,14.7,174.5,43.9c39,29.3,58.4,68,58.4,116c0,32.2-7.9,60.2-23.7,83.9
		c-15.8,23.7-37.6,42-65.5,54.9c-27.8,12.9-59.3,19.3-94.5,19.3l16.7-36.9c38.7,0,72.8,6.4,102.4,19.3
		c29.6,12.9,52.9,31.6,69.9,56.2c17,24.6,25.5,54.8,25.5,90.5c0,52.7-20.8,93.9-62.4,123.5c-41.6,29.6-102.8,44.4-183.7,44.4H4593.2
		z M4734.7,1233.3h167c36.3,0,64.2-6.1,83.5-18.5s29-31.4,29-57.1c0-26.4-9.7-45.7-29-58c-19.3-12.3-47.2-18.5-83.5-18.5h-177.5
		V977.6h152c34.6,0,61.1-6,79.5-18c18.5-12,27.7-30.3,27.7-54.9s-9.2-42.8-27.7-54.5c-18.5-11.7-45-17.6-79.5-17.6h-141.5V1233.3z"
		/>
	<path class="st0" d="M5455.3,1347.6c-39.8,0-75-7.6-105.5-22.8c-30.5-15.2-54.2-38.7-71.2-70.3c-17-31.6-25.5-71.5-25.5-119.5
		V867.7h137.1v246.1c0,39.8,8.3,69,25,87.4s40.3,27.7,70.7,27.7c21.1,0,39.8-4.7,56.2-14.1c16.4-9.4,29.4-23.4,39.1-42.2
		c9.7-18.7,14.5-42.2,14.5-70.3V867.7h136.2v472.8h-130.1v-131l23.7,38.7c-16.4,32.8-39.8,57.6-70.3,74.3
		C5525.1,1339.2,5491.7,1347.6,5455.3,1347.6z"/>
	<path class="st0" d="M5928.1,801.8c-25.8,0-46.6-7.3-62.4-22c-15.8-14.7-23.7-32.8-23.7-54.5c0-21.7,7.9-39.8,23.7-54.5
		c15.8-14.7,36.6-22,62.4-22c25.2,0,45.8,6.9,62,20.7c16.1,13.8,24.2,31.5,24.2,53.2c0,22.9-7.9,41.7-23.7,56.7
		C5974.7,794.3,5953.9,801.8,5928.1,801.8z M5859.6,1340.6V867.7h137.1v472.8H5859.6z"/>
	<path class="st0" d="M6124.1,1340.6V688.4h137.1v652.1H6124.1z"/>
	<path class="st0" d="M6591.7,1347.6c-44.5,0-84.7-10.1-120.4-30.3c-35.7-20.2-63.9-48.5-84.4-84.8c-20.5-36.3-30.8-79.1-30.8-128.3
		c0-49.2,10.3-92,30.8-128.3c20.5-36.3,48.6-64.6,84.4-84.8c35.7-20.2,75.9-30.3,120.4-30.3c39.8,0,74.7,8.8,104.6,26.4
		c29.9,17.6,53,44.2,69.4,80c16.4,35.7,24.6,81.5,24.6,137.1c0,55.1-7.9,100.8-23.7,137.1c-15.8,36.3-38.5,63.1-68.1,80.4
		C6668.9,1339,6633.3,1347.6,6591.7,1347.6z M6614.6,1235.1c22.8,0,43.4-5.1,61.5-15.4c18.2-10.3,32.7-25.3,43.5-45.3
		c10.8-19.9,16.3-43.4,16.3-70.3c0-27.5-5.4-51-16.3-70.3c-10.8-19.3-25.4-34.1-43.5-44.4s-38.7-15.4-61.5-15.4
		c-22.3,0-42.5,5.1-60.6,15.4s-32.7,25-43.5,44.4c-10.8,19.3-16.2,42.8-16.2,70.3c0,27,5.4,50.4,16.2,70.3
		c10.8,19.9,25.3,35,43.5,45.3C6572.1,1230,6592.3,1235.1,6614.6,1235.1z M6739.4,1340.6v-96.7l2.6-140.6l-8.8-139.8V688.4h137.1
		v652.1H6739.4z"/>
	<path class="st0" d="M7231.5,1347.6c-53.9,0-101.1-10.5-141.5-31.6c-40.4-21.1-71.8-50-94-86.6c-22.3-36.6-33.4-78.4-33.4-125.2
		s10.7-88.8,32.1-125.7c21.4-36.9,51.3-65.8,89.6-86.6c38.4-20.8,81.6-31.2,129.6-31.2c46.3,0,88,10,125.2,29.9s66.6,48.1,88.3,84.4
		c21.7,36.3,32.5,80,32.5,131c0,5.3-0.3,11.3-0.9,18c-0.6,6.7-1.2,13-1.8,18.9h-384.1v-80h312l-53.6,23.7c0.6-24.6-4.1-46-14.1-64.2
		c-10-18.2-23.7-32.4-41.3-42.6c-17.6-10.3-38.1-15.4-61.5-15.4c-23.5,0-44.1,5.1-62,15.4c-17.9,10.3-31.8,24.6-41.7,43.1
		s-14.9,40.3-14.9,65.5v21.1c0,26.4,5.9,49.2,17.6,68.6c11.7,19.3,27.8,34.1,48.3,44.4c20.5,10.3,45.1,15.4,73.8,15.4
		c24.6,0,46.4-3.8,65.5-11.4c19-7.6,36.5-19,52.3-34.3l72.9,79.1c-21.7,24.6-48.9,43.5-81.7,56.7
		C7312.1,1341,7274.3,1347.6,7231.5,1347.6z"/>
	<path class="st0" d="M7551.4,1340.6V867.7h131v134.5l-18.5-39.6c14.1-33.4,36.6-58.7,67.7-76c31.1-17.3,68.8-25.9,113.4-25.9v127.4
		c-5.3-1.2-10.4-2-15.4-2.6c-5-0.6-9.8-0.9-14.5-0.9c-38.7,0-69.4,10.8-92.3,32.5c-22.9,21.7-34.3,55.1-34.3,100.2v223.2H7551.4z"/>
</g>
</svg>
